<?xml version="1.0" encoding="UTF-8" standalone="no"?>
<!-- Created with Inkscape (http://www.inkscape.org/) -->

<svg
   xmlns:dc="http://purl.org/dc/elements/1.1/"
   xmlns:cc="http://creativecommons.org/ns#"
   xmlns:rdf="http://www.w3.org/1999/02/22-rdf-syntax-ns#"
   xmlns:svg="http://www.w3.org/2000/svg"
   xmlns="http://www.w3.org/2000/svg"
   xmlns:sodipodi="http://sodipodi.sourceforge.net/DTD/sodipodi-0.dtd"
   xmlns:inkscape="http://www.inkscape.org/namespaces/inkscape"
   width="210mm"
   height="297mm"
   viewBox="0 0 744.09448819 1052.3622047"
   id="svg2"
   version="1.1"
   inkscape:version="0.91 r13725"
   sodipodi:docname="logo_meme.svg">
  <defs
     id="defs4" />
  <sodipodi:namedview
     id="base"
     pagecolor="#ffffff"
     bordercolor="#666666"
     borderopacity="1.0"
     inkscape:pageopacity="0.0"
     inkscape:pageshadow="2"
     inkscape:zoom="0.35"
     inkscape:cx="380.71429"
     inkscape:cy="520"
     inkscape:document-units="px"
     inkscape:current-layer="layer1"
     showgrid="false"
     inkscape:window-width="1920"
     inkscape:window-height="1052"
     inkscape:window-x="0"
     inkscape:window-y="0"
     inkscape:window-maximized="1" />
  <metadata
     id="metadata7">
    <rdf:RDF>
      <cc:Work
         rdf:about="">
        <dc:format>image/svg+xml</dc:format>
        <dc:type
           rdf:resource="http://purl.org/dc/dcmitype/StillImage" />
        <dc:title></dc:title>
      </cc:Work>
    </rdf:RDF>
  </metadata>
  <g
     inkscape:label="Calque 1"
     inkscape:groupmode="layer"
     id="layer1">
    <g
       transform="matrix(1.25,0,0,-1.25,-24.51255,983.0242)"
       inkscape:label="ink_ext_XXXXXX"
       id="g3344">
      <g
         transform="scale(0.1,0.1)"
         id="g3346">
        <path
           inkscape:connector-curvature="0"
           id="path3348"
           style="fill:#121d2c;fill-opacity:1;fill-rule:nonzero;stroke:none"
           d="m 3260.78,4888.53 183.18,0 c 18.99,0 36.28,-10.88 44.53,-27.98 8.24,-17.1 5.95,-37.4 -5.87,-52.25 l -78.96,-99.07 -104.24,-130.8 c -9.37,-11.76 -23.59,-18.62 -38.64,-18.62 -15.05,0 -29.27,6.86 -38.65,18.62 l -104.23,130.8 -78.95,99.07 c -11.84,14.85 -14.12,35.15 -5.88,52.25 8.24,17.1 25.54,27.98 44.52,27.98 l 183.19,0" />
        <path
           inkscape:connector-curvature="0"
           id="path3350"
           style="fill:#121d2c;fill-opacity:1;fill-rule:nonzero;stroke:none"
           d="m 2388.23,5423.98 c -1.05,-17.85 -4.91,-35.82 -12.23,-53.24 -34.65,-82.46 -129.58,-121.21 -212.04,-86.56 -82.45,34.65 -121.21,129.59 -86.55,212.04 18.17,43.24 52.97,74.29 93.8,89.21 -242.98,90.98 -516.51,-25.45 -617.92,-266.78 -103.96,-247.36 12.3,-532.16 259.66,-636.12 247.37,-103.95 532.17,12.3 636.12,259.67 69.64,165.69 40.35,348.09 -60.84,481.78" />
        <path
           inkscape:connector-curvature="0"
           id="path3352"
           style="fill:#121d2c;fill-opacity:1;fill-rule:nonzero;stroke:none"
           d="m 4961.52,5392.88 c -1.04,-17.85 -4.9,-35.82 -12.22,-53.24 -34.65,-82.46 -129.58,-121.21 -212.04,-86.56 -82.46,34.66 -121.21,129.59 -86.56,212.04 18.17,43.24 52.97,74.29 93.8,89.22 -242.98,90.97 -516.5,-25.46 -617.92,-266.78 -103.95,-247.37 12.31,-532.17 259.67,-636.13 247.36,-103.95 532.17,12.31 636.12,259.67 69.63,165.69 40.34,348.1 -60.85,481.78" />
        <path
           inkscape:connector-curvature="0"
           id="path3354"
           style="fill:#121d2c;fill-opacity:1;fill-rule:nonzero;stroke:none"
           d="m 4811.14,7194.58 c -174.92,81.63 -215.73,-163.26 -583.06,-408.15 -261.71,-174.47 -739.47,-165.45 -986.26,-143.73 -246.8,-21.72 -724.55,-30.74 -986.26,143.73 -367.34,244.89 -408.15,489.78 -583.07,408.15 -86.35,-40.29 -293.45,-397.5 -488.08,-870.88 281.98,-1.97 562.5,-49.55 817.87,-115.98 604.23,121.98 1024.38,-265.14 1192.22,-459.64 33.08,-6.07 58.94,-6.55 94.66,0.02 167.84,194.51 587.97,581.58 1192.17,459.62 255.36,66.43 535.9,114.01 817.89,115.98 -194.63,473.38 -401.73,830.59 -488.08,870.88" />
        <path
           inkscape:connector-curvature="0"
           id="path3356"
           style="fill:#121d2c;fill-opacity:1;fill-rule:nonzero;stroke:none"
           d="m 4113.17,3307.98 c -55.31,-48.4 -119.27,-72.9 -190.14,-72.92 -3.11,0 -6.22,0 -9.28,0 -69.74,0 -133.69,24.52 -189,72.92 -16.81,14.7 -18.51,40.25 -3.8,57.08 14.71,16.76 40.25,18.5 57.07,3.79 41.01,-35.89 88.84,-53.96 140.33,-52.87 53.32,-1.18 100.56,16.98 141.54,52.87 16.85,14.75 42.37,12.99 57.08,-3.79 14.71,-16.83 13.01,-42.38 -3.8,-57.08 z m -312.68,-306.16 c -55.31,-48.4 -119.29,-72.91 -190.25,-72.91 -3.01,0.02 -6.04,0.02 -9.06,0 -69.83,0 -133.81,24.51 -189.12,72.91 -16.81,14.69 -18.51,40.24 -3.8,57.07 14.72,16.77 40.26,18.5 57.07,3.79 40.98,-35.84 87.55,-53.81 140.35,-52.86 52.73,-0.79 100.56,17 141.54,52.86 16.84,14.73 42.35,13 57.07,-3.79 14.7,-16.83 13,-42.38 -3.8,-57.07 z m -333.65,-338.71 c -56.5,-49.46 -122.2,-73.82 -194.81,-72.89 -1.09,-0.02 -2.37,-0.04 -3.73,-0.04 -2.02,0 -4.25,0.04 -6.54,0.08 -2.29,-0.04 -4.52,-0.08 -6.54,-0.08 -1.36,0 -2.64,0.02 -3.73,0.04 -72.61,-0.93 -138.31,23.43 -194.81,72.89 -16.8,14.68 -18.5,40.24 -3.79,57.07 14.71,16.78 40.24,18.52 57.07,3.79 40.98,-35.86 88.39,-54.05 141.61,-52.86 3.04,-0.04 6.07,-0.02 9.1,0.03 l 2.17,0 c 3.05,-0.05 6.07,-0.07 9.1,-0.03 53.23,-1.19 100.64,17 141.61,52.86 16.83,14.73 42.37,12.99 57.07,-3.79 14.72,-16.83 13.02,-42.39 -3.78,-57.07 z m -553.56,265.8 c -70.96,0 -134.94,24.51 -190.25,72.91 -16.81,14.69 -18.51,40.24 -3.8,57.07 14.72,16.79 40.23,18.52 57.07,3.79 40.98,-35.86 88.81,-53.65 141.54,-52.86 52.8,-0.95 99.37,17.02 140.34,52.86 16.83,14.71 42.36,12.98 57.07,-3.79 14.72,-16.83 13.02,-42.38 -3.79,-57.07 -55.31,-48.4 -119.29,-72.91 -189.12,-72.91 -3.02,0.02 -6.05,0.02 -9.06,0 z m -312.79,306.15 c -70.87,0.02 -134.84,24.52 -190.15,72.92 -16.8,14.7 -18.5,40.25 -3.79,57.08 14.71,16.78 40.23,18.54 57.07,3.79 41,-35.89 88.24,-54.05 141.55,-52.87 51.48,-1.09 99.31,16.98 140.33,52.87 16.82,14.71 42.36,12.97 57.07,-3.79 14.71,-16.83 13.02,-42.38 -3.79,-57.08 -55.31,-48.4 -119.28,-72.92 -189,-72.92 -3.07,0 -6.19,0 -9.29,0 z m 84.11,372.66 c 14.71,16.77 40.24,18.51 57.07,3.79 134.78,-117.93 296.35,-2.89 303.32,2.18 18.01,13.16 43.23,9.33 56.48,-8.62 13.25,-18 9.4,-43.31 -8.57,-56.56 -44.17,-32.54 -124.69,-70.4 -213.41,-70.4 -62.92,0 -129.98,19.06 -191.1,72.54 -16.81,14.7 -18.5,40.24 -3.79,57.07 z m 577.16,-301.86 c 52.82,-0.7 100.1,17.15 140.94,52.87 16.82,14.72 42.36,13 57.07,-3.79 14.71,-16.82 13.01,-42.37 -3.79,-57.07 -55.32,-48.4 -119.28,-72.91 -190.15,-72.93 -1.36,0 -2.72,0 -4.07,0 -1.35,0 -2.72,0 -4.06,0 -70.88,0.02 -134.84,24.53 -190.16,72.93 -16.8,14.7 -18.5,40.25 -3.79,57.07 14.71,16.79 40.25,18.51 57.07,3.79 40.84,-35.72 88.13,-53.57 140.94,-52.87 z m 160.29,299.21 c 13.25,17.95 38.47,21.78 56.48,8.62 6.97,-5.07 168.54,-120.11 303.33,-2.18 16.82,14.72 42.35,12.98 57.07,-3.79 14.7,-16.83 13,-42.37 -3.8,-57.07 -61.12,-53.48 -128.18,-72.54 -191.1,-72.54 -88.73,0 -169.24,37.86 -213.41,70.4 -17.97,13.25 -21.82,38.56 -8.57,56.56 z m 1207.26,598.95 c -9.28,-0.14 -18.39,-0.2 -27.47,-0.2 -219.36,0 -394.89,38.93 -536.44,99.8 -443.03,-108.69 -711.77,-189.47 -803.64,-316.39 -92.97,128.43 -366.7,209.57 -819.2,320.23 -14.23,-4.25 -28.86,-8.18 -43.75,-11.93 -138.11,-56.17 -307.51,-91.71 -516.93,-91.71 -0.05,0 -18.36,0.06 -27.56,0.2 -183.2,2.71 -438.01,45.84 -743.2,200.53 83.44,-1639.38 1160.51,-2069.44 2150.64,-2337.61 422.07,114.31 2138.7,597.16 2150.41,2358.53 -232.98,-124.08 -500.66,-217.28 -782.86,-221.45" />
        <path
           inkscape:connector-curvature="0"
           id="path3358"
           style="fill:#bf1e36;fill-opacity:1;fill-rule:nonzero;stroke:none"
           d="m 666.461,5535.53 c 0,451.36 759.319,375.42 944.919,366.98 0,0 687.61,-67.47 999.78,-413.39 312.16,-345.91 -63.27,-961.81 -649.64,-999.78 C 1375.15,4451.38 666.461,5084.15 666.461,5535.53 Z M 4522.12,4489.34 c -586.37,37.97 -961.82,653.87 -649.65,999.78 312.17,345.92 999.78,413.39 999.78,413.39 185.6,8.44 944.93,84.38 944.93,-366.98 0,-451.38 -708.7,-1084.15 -1295.06,-1046.19 z m -1280.31,792.2 128.67,-7.57 c 97.02,-4.21 113.89,-75.94 189.82,-210.93 75.94,-134.99 210.93,-755.09 1067.27,-742.42 856.36,12.64 1704.27,944.93 1826.59,1278.18 122.33,333.24 -118.11,577.93 -1063.04,607.45 -944.94,29.54 -1927.84,-523.08 -1927.84,-523.08 0,0 -117.35,-56.92 -221.47,-56.43 -104.11,-0.49 -221.47,56.43 -221.47,56.43 0,0 -982.89,552.62 -1927.82,523.08 C 147.582,6176.73 -92.8672,5932.04 29.4727,5598.8 151.805,5265.55 999.715,4333.26 1856.05,4320.62 c 856.34,-12.67 991.34,607.43 1067.27,742.42 75.93,134.99 92.8,206.72 189.84,210.93 l 128.65,7.57" />
        <path
           inkscape:connector-curvature="0"
           id="path3360"
           style="fill:#121d2c;fill-opacity:1;fill-rule:nonzero;stroke:none"
           d="m 3081.78,1989.75 c -50.36,94.66 -134.79,148.2 -188.57,119.58 -15.14,-8.05 -26.08,-21.9 -33.09,-39.53 -49.39,62.84 -113.07,93.6 -156.64,70.42 -16.67,-8.87 -28.42,-24.61 -35.22,-44.91 -48.38,57.43 -108.42,84.73 -150.1,62.55 -53.79,-28.61 -56.55,-128.54 -6.19,-223.2 50.36,-94.66 134.78,-148.19 188.57,-119.58 16.67,8.87 28.41,24.61 35.22,44.9 48.38,-57.41 108.41,-84.72 150.09,-62.55 15.14,8.05 26.08,21.9 33.1,39.53 49.38,-62.84 113.06,-93.6 156.64,-70.42 53.78,28.62 56.55,128.55 6.19,223.21" />
        <path
           inkscape:connector-curvature="0"
           id="path3362"
           style="fill:#121d2c;fill-opacity:1;fill-rule:nonzero;stroke:none"
           d="m 3349.87,1970.84 c 50.37,94.66 134.8,148.2 188.58,119.58 15.13,-8.06 26.07,-21.89 33.08,-39.53 49.4,62.84 113.08,93.6 156.64,70.42 16.67,-8.87 28.42,-24.62 35.23,-44.9 48.38,57.41 108.42,84.72 150.1,62.55 53.78,-28.62 56.55,-128.55 6.19,-223.21 -50.36,-94.65 -134.79,-148.2 -188.58,-119.59 -16.67,8.88 -28.41,24.62 -35.21,44.92 -48.38,-57.43 -108.42,-84.74 -150.1,-62.56 -15.14,8.05 -26.08,21.89 -33.09,39.54 -49.39,-62.84 -113.06,-93.61 -156.64,-70.42 -53.79,28.61 -56.56,128.54 -6.2,223.2" />
        <path
           inkscape:connector-curvature="0"
           id="path3364"
           style="fill:#bf1e36;fill-opacity:1;fill-rule:nonzero;stroke:none"
           d="m 634.148,12.2109 -182.492,642.6911 -5.496,0 c 8.547,-109.453 12.82,-194.492 12.82,-255.113 l 0,-387.5781 -213.625,0 0,892.3281 321.047,0 L 752.559,271 l 4.882,0 182.497,633.539 321.652,0 0,-892.3281 -221.56,0 0,391.2301 c 0,20.348 0.31,42.93 0.92,67.75 0.61,24.821 3.36,85.661 8.24,182.5 l -5.49,0 -180.059,-641.4801 -229.493,0" />
        <path
           inkscape:connector-curvature="0"
           id="path3366"
           style="fill:#bf1e36;fill-opacity:1;fill-rule:nonzero;stroke:none"
           d="m 2108.64,12.2109 -529.79,0 0,892.3281 529.79,0 0,-193.48 -288.7,0 0,-140.368 267.34,0 0,-193.492 -267.34,0 0,-168.457 288.7,0 0,-196.5311" />
        <path
           inkscape:connector-curvature="0"
           id="path3368"
           style="fill:#bf1e36;fill-opacity:1;fill-rule:nonzero;stroke:none"
           d="m 2778.69,12.2109 -182.5,642.6911 -5.5,0 c 8.55,-109.453 12.82,-194.492 12.82,-255.113 l 0,-387.5781 -213.62,0 0,892.3281 321.04,0 186.15,-633.539 4.89,0 182.5,633.539 321.66,0 0,-892.3281 -221.56,0 0,391.2301 c 0,20.348 0.3,42.93 0.91,67.75 0.61,24.821 3.36,85.661 8.25,182.5 l -5.5,0 -180.05,-641.4801 -229.49,0" />
        <path
           inkscape:connector-curvature="0"
           id="path3370"
           style="fill:#bf1e36;fill-opacity:1;fill-rule:nonzero;stroke:none"
           d="m 4253.16,12.2109 -529.78,0 0,892.3281 529.78,0 0,-193.48 -288.69,0 0,-140.368 267.35,0 0,-193.492 -267.35,0 0,-168.457 288.69,0 0,-196.5311" />
        <path
           inkscape:connector-curvature="0"
           id="path3372"
           style="fill:#bf1e36;fill-opacity:1;fill-rule:nonzero;stroke:none"
           d="m 5342.4,534.672 385.14,0 0,-480.9611 C 5622.95,17.9023 5508.01,0 5382.69,0 c -137.53,0 -243.84,39.8711 -318.92,119.629 -75.06,79.75 -112.6,193.48 -112.6,341.191 0,144.039 41.1,256.129 123.28,336.301 82.19,80.16 197.35,120.238 345.47,120.238 56.15,0 109.14,-5.289 158.99,-15.867 49.84,-10.582 93.28,-24.012 130.31,-40.281 l -76.29,-189.219 c -64.3,31.738 -134.88,47.617 -211.8,47.617 -70.39,0 -124.8,-22.89 -163.26,-68.668 -38.46,-45.769 -57.68,-111.179 -57.68,-196.23 0,-83.41 17.39,-146.992 52.19,-190.731 34.79,-43.738 84.92,-65.621 150.45,-65.621 35.8,0 68.75,3.461 98.87,10.383 l 0,139.778 -159.3,0 0,186.152" />
        <path
           inkscape:connector-curvature="0"
           id="path3374"
           style="fill:#bf1e36;fill-opacity:1;fill-rule:nonzero;stroke:none"
           d="m 6229.12,903.32 9.16,-13.429 C 6200.84,740.973 6164.82,626.84 6130.25,547.48 l -169.68,0 c 27.67,129 47.61,247.602 59.82,355.84 l 208.73,0" />
      </g>
    </g>
  </g>
</svg>
